<svg xmlns="http://www.w3.org/2000/svg" version="1.0" preserveAspectRatio="xMidYMid meet" viewBox="4.6 4.17 246.92 247.58">

<g transform="translate(0.000000,256.000000) scale(0.100000,-0.100000)" fill="#000000" stroke="none">
<path d="M1150 2513 c-471 -50 -881 -375 -1038 -823 -51 -147 -66 -238 -66 -410 0 -172 15 -263 66 -410 265 -756 1171 -1064 1840 -627 449 293 657 828 523 1351 -103 406 -424 742 -831 869 -144 45 -347 66 -494 50z m418 -770 l287 287 110 -110 110 -110 -318 -318 -317 -317 0 -383 0 -382 -155 0 -155 0 0 377 0 378 -322 322 -323 323 110 110 110 110 287 -287 288 -288 288 288z"/>
</g>
</svg>